<svg xmlns="http://www.w3.org/2000/svg" version="1.1" xmlns:xlink="http://www.w3.org/1999/xlink" width="326" height="326"><svg width="326" height="326" viewBox="0 0 326 326" fill="none" xmlns="http://www.w3.org/2000/svg">
<path d="M15.3784 181.569C9.97767 146.41 7.26965 128.847 13.9249 113.256C20.5649 97.6814 35.3136 87.0177 64.7958 65.7055L86.827 49.7787C123.5 23.2647 141.844 10 163.003 10C184.162 10 202.507 23.2647 239.179 49.7787L261.211 65.7055C290.693 87.0177 305.426 97.6814 312.082 113.256C318.722 128.847 316.029 146.41 310.628 181.553L306.023 211.54C298.373 261.355 294.533 286.263 276.663 301.134C258.793 316.005 232.677 315.99 180.429 315.99H145.562C93.314 315.99 67.1978 315.99 49.328 301.134C31.4582 286.263 27.6333 261.355 19.9682 211.525L15.3784 181.569Z" fill="white" stroke="#1D4ED8" stroke-width="20" stroke-linecap="round" stroke-linejoin="round"></path>
<path d="M151.529 182.119C169.689 200.28 193.602 218.731 193.602 218.731L226.389 185.944C226.389 185.944 207.938 162.031 189.778 143.87C171.617 125.71 147.704 107.259 147.704 107.259L114.917 140.046C114.917 140.046 133.368 163.959 151.529 182.119ZM151.529 182.119L94.1556 239.492ZM231.851 180.482L188.14 224.193ZM153.166 101.797L109.455 145.508Z" fill="#1D4ED8"></path>
<path d="M151.529 182.119C169.689 200.28 193.602 218.731 193.602 218.731L226.389 185.944C226.389 185.944 207.938 162.031 189.778 143.87C171.617 125.71 147.704 107.259 147.704 107.259L114.917 140.046C114.917 140.046 133.368 163.959 151.529 182.119ZM151.529 182.119L94.1556 239.492M231.851 180.482L188.14 224.193M153.166 101.797L109.455 145.508" stroke="#1D4ED8" stroke-width="20" stroke-linecap="round" stroke-linejoin="round"></path>
</svg><style>@media (prefers-color-scheme: light) { :root { filter: none; } }
@media (prefers-color-scheme: dark) { :root { filter: none; } }
</style></svg>