<svg width="28" height="32" viewBox="0 0 28 32" fill="none" xmlns="http://www.w3.org/2000/svg">
<path d="M25.7895 27.4286C25.7895 27.6306 25.7118 27.8244 25.5737 27.9673C25.4355 28.1102 25.2481 28.1905 25.0526 28.1905H16.6055C16.1839 29.0267 15.6489 29.7964 15.0168 30.4762H25.0526C25.8343 30.4762 26.584 30.1551 27.1367 29.5836C27.6895 29.012 28 28.2369 28 27.4286V11.9284C27.9998 11.1202 27.6892 10.3451 27.1364 9.77371L18.5463 0.892952L18.4741 0.832L18.4211 0.786286C18.3199 0.687079 18.212 0.59542 18.0983 0.512C18.06 0.487806 18.0207 0.465434 17.9804 0.444952L17.9097 0.408381L17.836 0.364191C17.7564 0.316953 17.6754 0.26819 17.5914 0.231619C17.2977 0.11101 16.9872 0.0400087 16.6718 0.0213332C16.6423 0.0193015 16.6133 0.015746 16.5848 0.0106666L16.464 0H7.36842C6.58673 0 5.83706 0.321087 5.28432 0.892627C4.73158 1.46417 4.42105 2.23934 4.42105 3.04762V14.4731C5.13029 14.1679 5.87247 13.952 6.63158 13.8301V3.04762C6.63158 2.84555 6.70921 2.65176 6.84739 2.50887C6.98558 2.36599 7.173 2.28571 7.36842 2.28571H16.2105V9.14286C16.2105 9.95114 16.5211 10.7263 17.0738 11.2978C17.6265 11.8694 18.3762 12.1905 19.1579 12.1905H25.7895V27.4286ZM18.4211 3.9939L24.136 9.90476H19.1579C18.9625 9.90476 18.7751 9.82449 18.6369 9.68161C18.4987 9.53872 18.4211 9.34493 18.4211 9.14286V3.9939ZM16.2105 23.619C16.2105 22.5184 16.0009 21.4286 15.5936 20.4118C15.1862 19.395 14.5892 18.4711 13.8365 17.6928C13.0839 16.9146 12.1904 16.2972 11.207 15.8761C10.2236 15.4549 9.16966 15.2381 8.10526 15.2381C7.04086 15.2381 5.98689 15.4549 5.00351 15.8761C4.02014 16.2972 3.12662 16.9146 2.37398 17.6928C1.62133 18.4711 1.0243 19.395 0.616976 20.4118C0.209649 21.4286 -1.58608e-08 22.5184 0 23.619C3.20323e-08 25.8418 0.853945 27.9735 2.37398 29.5453C3.89401 31.117 5.95561 32 8.10526 32C10.2549 32 12.3165 31.117 13.8365 29.5453C15.3566 27.9735 16.2105 25.8418 16.2105 23.619ZM8.8421 24.381L8.84358 28.195C8.84358 28.3971 8.76595 28.5909 8.62776 28.7338C8.48958 28.8767 8.30216 28.957 8.10674 28.957C7.91131 28.957 7.7239 28.8767 7.58571 28.7338C7.44753 28.5909 7.36989 28.3971 7.36989 28.195V24.381H3.67832C3.48289 24.381 3.29547 24.3007 3.15729 24.1578C3.0191 24.0149 2.94147 23.8211 2.94147 23.619C2.94147 23.417 3.0191 23.2232 3.15729 23.0803C3.29547 22.9374 3.48289 22.8571 3.67832 22.8571H7.36842V19.0476C7.36842 18.8456 7.44605 18.6518 7.58424 18.5089C7.72242 18.366 7.90984 18.2857 8.10526 18.2857C8.30069 18.2857 8.4881 18.366 8.62629 18.5089C8.76447 18.6518 8.8421 18.8456 8.8421 19.0476V22.8571H12.5219C12.7173 22.8571 12.9047 22.9374 13.0429 23.0803C13.1811 23.2232 13.2587 23.417 13.2587 23.619C13.2587 23.8211 13.1811 24.0149 13.0429 24.1578C12.9047 24.3007 12.7173 24.381 12.5219 24.381H8.8421Z" fill="white"/>
</svg>
