<svg width="19" height="15" viewBox="0 0 19 15" fill="none" xmlns="http://www.w3.org/2000/svg">
<path d="M4.14678 8.48252L10.1247 13.3297C10.3687 13.5275 10.4858 13.7583 10.476 14.0221C10.4663 14.2859 10.339 14.5167 10.0942 14.7146C9.85017 14.8959 9.56551 14.9909 9.24018 14.9995C8.91485 15.008 8.63019 14.9131 8.3862 14.7146L0.334348 8.18575C0.212351 8.08683 0.125733 7.97967 0.0744935 7.86426C0.0232545 7.74885 -0.00155156 7.6252 7.50759e-05 7.4933C0.00170171 7.36141 0.0273209 7.23776 0.0769333 7.12235C0.126546 7.00694 0.212758 6.89978 0.335569 6.80085L8.38742 0.272034C8.61108 0.0906777 8.89086 0 9.22676 0C9.56266 0 9.8522 0.0906777 10.0954 0.272034C10.3394 0.469877 10.4614 0.704981 10.4614 0.977344C10.4614 1.24971 10.3394 1.48448 10.0954 1.68167L4.14678 6.50409H17.78C18.1257 6.50409 18.4156 6.59905 18.6499 6.78898C18.8841 6.97891 19.0008 7.21369 19 7.4933C18.9992 7.77292 18.8821 8.00803 18.6486 8.19862C18.4152 8.3892 18.1257 8.48384 17.78 8.48252H4.14678Z" fill="black"/>
</svg>
