<svg width="28" height="28" viewBox="0 0 28 28" fill="none" xmlns="http://www.w3.org/2000/svg">
<path d="M0.000596298 13.75C0.000596298 6.15588 6.15647 0 13.7506 0C21.3447 0 27.5006 6.15588 27.5006 13.75C27.5006 21.3441 21.3447 27.5 13.7506 27.5C11.3787 27.5 9.14572 26.8991 7.19666 25.8404L1.53372 27.4505C0.626909 27.7083 -0.210466 26.8703 0.0473462 25.9641L1.65747 20.3005C0.5662 18.2899 -0.00346392 16.0377 0.000596298 13.75ZM8.2506 11.1719C8.2506 11.6463 8.6356 12.0313 9.10997 12.0313H18.3912C18.5041 12.0313 18.6158 12.009 18.7201 11.9658C18.8244 11.9226 18.9191 11.8593 18.9989 11.7795C19.0787 11.6997 19.142 11.605 19.1852 11.5007C19.2284 11.3965 19.2506 11.2847 19.2506 11.1719C19.2506 11.059 19.2284 10.9473 19.1852 10.843C19.142 10.7387 19.0787 10.644 18.9989 10.5642C18.9191 10.4844 18.8244 10.4211 18.7201 10.3779C18.6158 10.3347 18.5041 10.3125 18.3912 10.3125H9.10997C8.6356 10.3125 8.2506 10.6975 8.2506 11.1719ZM9.10997 15.4688C8.88205 15.4688 8.66347 15.5593 8.5023 15.7205C8.34114 15.8816 8.2506 16.1002 8.2506 16.3281C8.2506 16.556 8.34114 16.7746 8.5023 16.9358C8.66347 17.097 8.88205 17.1875 9.10997 17.1875H15.6412C15.8691 17.1875 16.0877 17.097 16.2489 16.9358C16.4101 16.7746 16.5006 16.556 16.5006 16.3281C16.5006 16.1002 16.4101 15.8816 16.2489 15.7205C16.0877 15.5593 15.8691 15.4688 15.6412 15.4688H9.10997Z" fill="#1D4ED8"/>
</svg>
