<svg width="28" height="28" viewBox="0 0 28 28" fill="none" xmlns="http://www.w3.org/2000/svg">
<path d="M15.2727 9.8H21.6364L15.2727 2.8V9.8ZM6.36364 28C5.66364 28 5.06461 27.7261 4.56655 27.1782C4.06848 26.6303 3.81903 25.9709 3.81818 25.2V21H24.1818V25.2C24.1818 25.97 23.9328 26.6294 23.4347 27.1782C22.9367 27.727 22.3372 28.0009 21.6364 28H6.36364ZM0 18.2V15.4H28V18.2H0ZM3.81818 12.6V2.8C3.81818 2.03 4.06764 1.37107 4.56655 0.8232C5.06545 0.275333 5.66448 0.000933333 6.36364 0H16.5455L24.1818 8.4V12.6H3.81818Z" fill="#1D4ED8"/>
</svg>
