<svg width="25" height="25" viewBox="0 0 25 25" fill="none" xmlns="http://www.w3.org/2000/svg">
<path d="M24 12.5C24 6.14855 18.8514 1 12.5 1C6.14855 1 1 6.14855 1 12.5C1 18.8514 6.14855 24 12.5 24C18.8514 24 24 18.8514 24 12.5Z" stroke="black" stroke-width="1.5" stroke-linecap="round" stroke-linejoin="round"/>
<path d="M21.7 5.25385C20.6247 5.3309 19.2482 5.74835 18.2937 6.98345C16.5687 9.21445 14.8448 9.4019 13.6948 8.65785C11.9698 7.54235 13.42 5.7334 11.396 4.7513C10.0769 4.11075 9.89295 2.3685 10.6278 1M1 11.35C1.87745 12.1113 3.1045 12.8082 4.55235 12.8082C7.54235 12.8082 8.14035 13.3797 8.14035 15.6648C8.14035 17.9498 8.14035 17.9498 8.73835 19.6633C9.12705 20.7788 9.26275 21.892 8.48765 22.85M24 14.1698C22.9799 13.5833 21.7 13.3406 20.4039 14.271C17.9257 16.0535 16.2157 14.5769 15.4463 16.0523C14.3136 18.2235 18.3604 18.9055 14.8 24" stroke="black" stroke-width="1.5" stroke-linecap="round" stroke-linejoin="round"/>
</svg>
