<svg width="28" height="28" viewBox="0 0 28 28" fill="none" xmlns="http://www.w3.org/2000/svg">
<path fill-rule="evenodd" clip-rule="evenodd" d="M12.1803 0.605754C12.8536 0.209488 13.6255 0 14.4125 0C15.1995 0 15.9715 0.209488 16.6447 0.605754L18.2299 1.54868C20.454 2.87075 22.987 3.16513 25.5316 3.46178C26.3542 3.55789 27.1775 3.65324 27.9923 3.78416C27.9923 3.78416 28.0102 5.17207 27.9915 5.8017L27.8288 11.2133C27.6888 15.8545 25.5667 20.2551 21.9263 23.4532C20.2088 24.9614 18.4322 26.3244 16.3911 27.4565C15.7894 27.7871 15.115 27.9726 14.4244 27.9972C13.7338 28.0218 13.0472 27.8849 12.4223 27.598C10.0652 26.5083 7.97807 25.1264 6.07228 23.4532C2.43192 20.2551 0.309805 15.8545 0.170509 11.2133L0.00864653 5.8191C-0.0108082 5.18039 0.00864653 3.78416 0.00864653 3.78416C0.670106 3.70849 1.34402 3.64567 2.02337 3.58286C5.02173 3.30589 8.11969 3.01983 10.6613 1.50933L12.1803 0.605754ZM12.4363 12.1086V6.81122H15.5491V12.1086H20.9964V15.1356H15.5491V20.433H12.4363V15.1356H6.98899V12.1086H12.4363Z" fill="#1D4ED8"/>
</svg>
