<svg width="28" height="28" viewBox="0 0 28 28" fill="none" xmlns="http://www.w3.org/2000/svg">
<path d="M0 24.8V10.4C0 9.89333 0.12425 9.41333 0.37275 8.96C0.62125 8.50667 0.963667 8.13333 1.4 7.84L11.9 0.64C12.5125 0.213333 13.2125 0 14 0C14.7875 0 15.4875 0.213333 16.1 0.64L26.6 7.84C27.0375 8.13333 27.3805 8.50667 27.629 8.96C27.8775 9.41333 28.0012 9.89333 28 10.4V24.8C28 25.68 27.657 26.4336 26.971 27.0608C26.285 27.688 25.4613 28.0011 24.5 28H19.25C18.7542 28 18.3388 27.8464 18.004 27.5392C17.6692 27.232 17.5012 26.8523 17.5 26.4V18.4C17.5 17.9467 17.332 17.5669 16.996 17.2608C16.66 16.9547 16.2447 16.8011 15.75 16.8H12.25C11.7542 16.8 11.3388 16.9536 11.004 17.2608C10.6692 17.568 10.5012 17.9477 10.5 18.4V26.4C10.5 26.8533 10.332 27.2336 9.996 27.5408C9.66 27.848 9.24466 28.0011 8.75 28H3.5C2.5375 28 1.71383 27.6869 1.029 27.0608C0.344166 26.4347 0.00116667 25.6811 0 24.8Z" fill="#1D4ED8"/>
</svg>
