<svg width="23" height="29" viewBox="0 0 23 29" fill="none" xmlns="http://www.w3.org/2000/svg">
<path d="M3.83333 29H23V26.1H3.84867C3.25833 26.0826 2.55556 25.8173 2.55556 24.65C2.55556 23.4828 3.25833 23.2174 3.84867 23.2H23V2.9C23 1.30065 21.8538 0 20.4444 0H3.83333C2.29233 0 0 1.15855 0 4.35V24.65C0 27.8415 2.29233 29 3.83333 29ZM2.55556 8.7V4.35C2.55556 3.18275 3.25833 2.9174 3.83333 2.9H20.4444V20.3H2.55556V8.7Z" fill="black"/>
<path d="M6.38892 5.80005H17.8889V8.70005H6.38892V5.80005Z" fill="black"/>
</svg>
