<svg width="123" height="130" viewBox="0 0 123 130" fill="none" xmlns="http://www.w3.org/2000/svg">
<path d="M52.9167 74.1667C66.5012 88.6744 84.3889 103.414 84.3889 103.414L108.914 77.2222C108.914 77.2222 95.1123 58.1189 81.5278 43.6111C67.9432 29.1033 50.0556 14.3633 50.0556 14.3633L25.5301 40.5556C25.5301 40.5556 39.3321 59.6589 52.9167 74.1667ZM52.9167 74.1667L10 120ZM113 72.8589L80.3032 107.778ZM54.1412 10L21.4444 44.9189Z" fill="#1D4ED8"/>
<path d="M52.9167 74.1667C66.5012 88.6744 84.3889 103.414 84.3889 103.414L108.914 77.2222C108.914 77.2222 95.1123 58.1189 81.5278 43.6111C67.9432 29.1033 50.0556 14.3633 50.0556 14.3633L25.5301 40.5556C25.5301 40.5556 39.3321 59.6589 52.9167 74.1667ZM52.9167 74.1667L10 120M113 72.8589L80.3032 107.778M54.1412 10L21.4444 44.9189" stroke="#1D4ED8" stroke-width="20" stroke-linecap="round" stroke-linejoin="round"/>
</svg>
