<svg width="96" height="87" viewBox="0 0 96 87" fill="none" xmlns="http://www.w3.org/2000/svg">
<path d="M80.5814 33.4718L81.6548 31.0098C83.5422 26.6545 86.9985 23.1625 91.3419 21.2229L94.6538 19.7483C95.0556 19.564 95.396 19.2688 95.6346 18.8976C95.8732 18.5264 96 18.0947 96 17.6539C96 17.213 95.8732 16.7814 95.6346 16.4102C95.396 16.0389 95.0556 15.7437 94.6538 15.5595L91.5252 14.1719C87.0726 12.177 83.5571 8.55582 81.7028 4.05433L80.5989 1.39663C80.4367 0.984939 80.1539 0.631495 79.7873 0.382371C79.4207 0.133247 78.9873 0 78.5436 0C78.1 0 77.6666 0.133247 77.3 0.382371C76.9334 0.631495 76.6506 0.984939 76.4884 1.39663L75.3844 4.04998C73.5322 8.55232 70.0182 12.1751 65.5665 14.1719L62.4335 15.5638C62.0329 15.7486 61.6937 16.0438 61.456 16.4145C61.2183 16.7852 61.092 17.2161 61.092 17.656C61.092 18.096 61.2183 18.5268 61.456 18.8976C61.6937 19.2683 62.0329 19.5635 62.4335 19.7483L65.7498 21.2185C70.0923 23.1601 73.5471 26.6536 75.4324 31.0098L76.5059 33.4718C77.2913 35.2726 79.7916 35.2726 80.5814 33.4718ZM0 13.054C0 11.9004 0.459728 10.794 1.27805 9.97825C2.09637 9.16251 3.20625 8.70423 4.36354 8.70423H52.3624V17.4038H8.72707V78.3005H78.5436V43.5024H87.2707V82.6502C87.2707 83.8039 86.811 84.9102 85.9927 85.726C85.1743 86.5417 84.0645 87 82.9072 87H4.36354C3.20625 87 2.09637 86.5417 1.27805 85.726C0.459728 84.9102 0 83.8039 0 82.6502V13.054ZM21.8177 30.4531H65.453V43.5024H56.726V39.1526H47.9989V56.5516H54.5442V65.2512H32.7265V56.5516H39.2718V39.1526H30.5447V43.5024H21.8177V30.4531Z" fill="url(#paint0_linear_9_160)"/>
<defs>
<linearGradient id="paint0_linear_9_160" x1="48" y1="0" x2="48" y2="87" gradientUnits="userSpaceOnUse">
<stop stop-color="#22D3EE"/>
<stop offset="1" stop-color="#1D4ED8"/>
</linearGradient>
</defs>
</svg>
