<svg width="23" height="29" viewBox="0 0 23 29" fill="none" xmlns="http://www.w3.org/2000/svg">
<path d="M11.5929 2.38892C12.0167 2.20331 12.4785 2.1474 12.929 2.22716C13.3796 2.30691 13.8019 2.51933 14.1508 2.84173L14.3095 3.00049L20.2591 9.52215C20.5822 9.87594 20.8115 10.3194 20.9224 10.805C21.0334 11.2906 21.0217 11.8001 20.8888 12.2791L20.8171 12.5L17.8385 20.6631C17.6714 21.12 17.3958 21.5197 17.0404 21.8207C16.685 22.1217 16.2626 22.3131 15.8171 22.3749L9.42036 23.2516C9.25579 23.2728 9.08367 23.2985 8.90398 23.3289L8.34479 23.4283L8.0526 23.4863L7.14202 23.6796L6.5186 23.8259L5.58031 24.0564L4.37754 24.3712L2.42289 24.9179L1.60929 25.1581C1.40397 25.22 1.18776 25.2244 0.980486 25.1709C0.773214 25.1174 0.581511 25.0077 0.422953 24.8519C0.264395 24.6961 0.144056 24.4992 0.072971 24.2791C0.00188573 24.0591 -0.0176715 23.823 0.0160921 23.5926L0.0589131 23.391L0.430449 21.8559L0.762942 20.4091L1.05009 19.0906L1.26042 18.0621L1.39266 17.3774L1.57024 16.3807L1.671 15.7497L1.7516 15.1589L2.58284 7.86965C2.6352 7.4198 2.78783 6.99101 3.02726 6.62117C3.26669 6.25133 3.58554 5.95184 3.95563 5.74914L4.14581 5.65388L11.5929 2.38892ZM12.5274 4.95257L5.08157 8.21754L4.34606 14.6674L4.2856 15.2141C4.16199 16.2297 4.00022 17.2393 3.80072 18.2402L3.58535 19.3253L7.7264 14.7861C7.58284 14.199 7.62003 13.5764 7.83219 13.0148C8.04436 12.4533 8.41966 11.9841 8.89987 11.6802C9.38008 11.3762 9.93836 11.2545 10.4881 11.3338C11.0379 11.4131 11.5484 11.6891 11.9405 12.1189C12.3326 12.5487 12.5844 13.1083 12.6568 13.711C12.7291 14.3136 12.618 14.9255 12.3408 15.4519C12.0635 15.9783 11.6355 16.3897 11.1232 16.6223C10.6109 16.8548 10.0429 16.8956 9.50726 16.7382L5.36621 21.2774L5.85991 21.1573L6.84731 20.9295C7.46267 20.7918 8.08128 20.6721 8.70247 20.5706L15.4997 19.6373L18.4783 11.4756L12.5274 4.95257ZM15.5035 0.405084C15.7202 0.167184 16.0086 0.0241392 16.3147 0.0027885C16.6208 -0.0185622 16.9235 0.0832487 17.1659 0.289119L17.2843 0.405084L22.6269 6.26132C22.8552 6.50918 22.9884 6.84331 22.9993 7.19532C23.0102 7.54732 22.8979 7.89058 22.6855 8.15484C22.4731 8.41909 22.1765 8.58435 21.8566 8.6168C21.5366 8.64924 21.2175 8.54642 20.9644 8.32936L20.846 8.2134L15.5035 2.35716C15.2674 2.09827 15.1347 1.74719 15.1347 1.38112C15.1347 1.01505 15.2674 0.663973 15.5035 0.405084Z" fill="black"/>
</svg>
