<svg width="23" height="29" viewBox="0 0 23 29" fill="none" xmlns="http://www.w3.org/2000/svg">
<path fill-rule="evenodd" clip-rule="evenodd" d="M0 2.65885C0 1.95368 0.302901 1.27739 0.842068 0.778759C1.38123 0.280128 2.1125 0 2.875 0H20.125C20.8875 0 21.6188 0.280128 22.1579 0.778759C22.6971 1.27739 23 1.95368 23 2.65885V23.9297C23 24.6348 22.6971 25.3111 22.1579 25.8097C21.6188 26.3084 20.8875 26.5885 20.125 26.5885H2.875C2.1125 26.5885 1.38123 26.3084 0.842068 25.8097C0.302901 25.3111 0 24.6348 0 23.9297V2.65885ZM20.125 2.65885H2.875V23.9297H20.125V2.65885ZM5.75 9.30598C5.75 8.95339 5.90145 8.61525 6.17103 8.36593C6.44062 8.11662 6.80625 7.97655 7.1875 7.97655H15.8125C16.1937 7.97655 16.5594 8.11662 16.829 8.36593C17.0985 8.61525 17.25 8.95339 17.25 9.30598C17.25 9.65856 17.0985 9.99671 16.829 10.246C16.5594 10.4953 16.1937 10.6354 15.8125 10.6354H7.1875C6.80625 10.6354 6.44062 10.4953 6.17103 10.246C5.90145 9.99671 5.75 9.65856 5.75 9.30598ZM7.1875 14.6237C6.80625 14.6237 6.44062 14.7637 6.17103 15.0131C5.90145 15.2624 5.75 15.6005 5.75 15.9531C5.75 16.3057 5.90145 16.6438 6.17103 16.8931C6.44062 17.1425 6.80625 17.2825 7.1875 17.2825H11.5C11.8812 17.2825 12.2469 17.1425 12.5165 16.8931C12.786 16.6438 12.9375 16.3057 12.9375 15.9531C12.9375 15.6005 12.786 15.2624 12.5165 15.0131C12.2469 14.7637 11.8812 14.6237 11.5 14.6237H7.1875Z" fill="black"/>
</svg>
