<svg width="23" height="20" viewBox="0 0 23 20" fill="none" xmlns="http://www.w3.org/2000/svg">
<path d="M17.6245 17.1452L15.3921 19.639C15.1767 19.8797 14.9025 20 14.5696 20C14.2367 20 13.9625 19.8797 13.7471 19.639C13.5317 19.3984 13.424 19.0922 13.424 18.7203C13.424 18.3484 13.5317 18.0421 13.7471 17.8015L15.9796 15.3076L13.7471 12.8138C13.5317 12.5732 13.424 12.2669 13.424 11.895C13.424 11.5231 13.5317 11.2169 13.7471 10.9762C13.9625 10.7356 14.2367 10.6153 14.5696 10.6153C14.9025 10.6153 15.1767 10.7356 15.3921 10.9762L17.6245 13.4701L19.857 10.9762C20.0724 10.7356 20.3465 10.6153 20.6794 10.6153C21.0123 10.6153 21.2865 10.7356 21.5019 10.9762C21.7173 11.2169 21.825 11.5231 21.825 11.895C21.825 12.2669 21.7173 12.5732 21.5019 12.8138L19.2695 15.3076L21.5019 17.8015C21.7173 18.0421 21.825 18.3484 21.825 18.7203C21.825 19.0922 21.7173 19.3984 21.5019 19.639C21.2865 19.8797 21.0123 20 20.6794 20C20.3465 20 20.0724 19.8797 19.857 19.639L17.6245 17.1452ZM16.8608 5.03695L21.0319 0.37741C21.2669 0.114901 21.5411 -0.0106667 21.8544 0.000708691C22.1677 0.0120841 22.4419 0.148589 22.6769 0.410224C22.8923 0.672733 23 0.978994 23 1.32901C23 1.67902 22.8923 1.98528 22.6769 2.24779L17.7126 7.82612C17.4777 8.08863 17.2035 8.21988 16.8902 8.21988C16.5768 8.21988 16.3027 8.08863 16.0677 7.82612L13.5415 5.00414C13.3261 4.76351 13.2184 4.45725 13.2184 4.08536C13.2184 3.71347 13.3261 3.40721 13.5415 3.16657C13.7569 2.92594 14.0311 2.80562 14.364 2.80562C14.6969 2.80562 14.9711 2.92594 15.1865 3.16657L16.8608 5.03695ZM1.17497 13.9951H9.39975C9.73265 13.9951 10.0119 14.1211 10.2375 14.3731C10.4631 14.6251 10.5755 14.9366 10.5747 15.3076C10.5739 15.6787 10.4611 15.9906 10.2363 16.2435C10.0115 16.4964 9.73265 16.6219 9.39975 16.6202H1.17497C0.842064 16.6202 0.563205 16.4942 0.338395 16.2422C0.113584 15.9902 0.000787363 15.6787 4.05161e-06 15.3076C-0.00077926 14.9366 0.112018 14.6251 0.338395 14.3731C0.564772 14.1211 0.843631 13.9951 1.17497 13.9951ZM1.17497 3.49471H9.39975C9.73265 3.49471 10.0119 3.62072 10.2375 3.87272C10.4631 4.12473 10.5755 4.43625 10.5747 4.80726C10.5739 5.17827 10.4611 5.49022 10.2363 5.74311C10.0115 5.99599 9.73265 6.12156 9.39975 6.11981H1.17497C0.842064 6.11981 0.563205 5.9938 0.338395 5.74179C0.113584 5.48978 0.000787363 5.17827 4.05161e-06 4.80726C-0.00077926 4.43625 0.112018 4.12473 0.338395 3.87272C0.564772 3.62072 0.843631 3.49471 1.17497 3.49471Z" fill="black"/>
</svg>
