<svg width="77" height="77" viewBox="0 0 77 77" fill="none" xmlns="http://www.w3.org/2000/svg">
<path fill-rule="evenodd" clip-rule="evenodd" d="M53.625 4.125C53.625 3.03098 54.0596 1.98177 54.8332 1.20818C55.6068 0.434597 56.656 0 57.75 0L67.375 0C72.688 0 77 4.312 77 9.625V19.25C77 20.344 76.5654 21.3932 75.7918 22.1668C75.0182 22.9404 73.969 23.375 72.875 23.375C71.781 23.375 70.7318 22.9404 69.9582 22.1668C69.1846 21.3932 68.75 20.344 68.75 19.25V9.625C68.75 9.26033 68.6051 8.91059 68.3473 8.65273C68.0894 8.39487 67.7397 8.25 67.375 8.25H57.75C56.656 8.25 55.6068 7.8154 54.8332 7.04182C54.0596 6.26823 53.625 5.21902 53.625 4.125ZM0 38.5C0 37.406 0.434597 36.3568 1.20818 35.5832C1.98177 34.8096 3.03098 34.375 4.125 34.375H72.875C73.969 34.375 75.0182 34.8096 75.7918 35.5832C76.5654 36.3568 77 37.406 77 38.5C77 39.594 76.5654 40.6432 75.7918 41.4168C75.0182 42.1904 73.969 42.625 72.875 42.625H4.125C3.03098 42.625 1.98177 42.1904 1.20818 41.4168C0.434597 40.6432 0 39.594 0 38.5ZM8.25 9.625C8.25 9.26033 8.39487 8.91059 8.65273 8.65273C8.91059 8.39487 9.26033 8.25 9.625 8.25H19.25C20.344 8.25 21.3932 7.8154 22.1668 7.04182C22.9404 6.26823 23.375 5.21902 23.375 4.125C23.375 3.03098 22.9404 1.98177 22.1668 1.20818C21.3932 0.434597 20.344 0 19.25 0L9.625 0C7.07229 0 4.62413 1.01406 2.8191 2.8191C1.01406 4.62413 0 7.07229 0 9.625L0 19.25C0 20.344 0.434597 21.3932 1.20818 22.1668C1.98177 22.9404 3.03098 23.375 4.125 23.375C5.21902 23.375 6.26823 22.9404 7.04182 22.1668C7.8154 21.3932 8.25 20.344 8.25 19.25V9.625ZM72.875 53.625C73.969 53.625 75.0182 54.0596 75.7918 54.8332C76.5654 55.6068 77 56.656 77 57.75V67.375C77 69.9277 75.9859 72.3759 74.1809 74.1809C72.3759 75.9859 69.9277 77 67.375 77H57.75C56.656 77 55.6068 76.5654 54.8332 75.7918C54.0596 75.0182 53.625 73.969 53.625 72.875C53.625 71.781 54.0596 70.7318 54.8332 69.9582C55.6068 69.1846 56.656 68.75 57.75 68.75H67.375C67.7397 68.75 68.0894 68.6051 68.3473 68.3473C68.6051 68.0894 68.75 67.7397 68.75 67.375V57.75C68.75 56.656 69.1846 55.6068 69.9582 54.8332C70.7318 54.0596 71.781 53.625 72.875 53.625ZM8.25 57.75C8.25 56.656 7.8154 55.6068 7.04182 54.8332C6.26823 54.0596 5.21902 53.625 4.125 53.625C3.03098 53.625 1.98177 54.0596 1.20818 54.8332C0.434597 55.6068 0 56.656 0 57.75L0 67.375C0 72.688 4.312 77 9.625 77H19.25C20.344 77 21.3932 76.5654 22.1668 75.7918C22.9404 75.0182 23.375 73.969 23.375 72.875C23.375 71.781 22.9404 70.7318 22.1668 69.9582C21.3932 69.1846 20.344 68.75 19.25 68.75H9.625C9.26033 68.75 8.91059 68.6051 8.65273 68.3473C8.39487 68.0894 8.25 67.7397 8.25 67.375V57.75Z" fill="url(#paint0_linear_9_148)"/>
<defs>
<linearGradient id="paint0_linear_9_148" x1="38.5" y1="0" x2="38.5" y2="77" gradientUnits="userSpaceOnUse">
<stop stop-color="#22D3EE"/>
<stop offset="1" stop-color="#1D4ED8"/>
</linearGradient>
</defs>
</svg>
