<svg width="23" height="21" viewBox="0 0 23 21" fill="none" xmlns="http://www.w3.org/2000/svg">
<path d="M17.5644 14.617L22.1779 18.899L20.6537 20.314L16.0414 16.031C14.3252 17.3082 12.1905 18.0029 9.99099 18C4.63971 18 0.296631 13.968 0.296631 9C0.296631 4.032 4.63971 0 9.99099 0C15.3423 0 19.6854 4.032 19.6854 9C19.6885 11.042 18.9402 13.0237 17.5644 14.617ZM15.4037 13.875C16.7704 12.5697 17.5338 10.8204 17.5311 9C17.5311 5.133 14.1563 2 9.99099 2C5.82565 2 2.45093 5.133 2.45093 9C2.45093 12.867 5.82565 16 9.99099 16C11.9518 16.0025 13.8361 15.2938 15.2421 14.025L15.4037 13.875Z" fill="black"/>
</svg>
