<svg width="33" height="28" viewBox="0 0 33 28" fill="none" xmlns="http://www.w3.org/2000/svg">
<path d="M32.9262 1.20015C33.0012 1.04114 33.0195 0.866942 32.979 0.699161C32.9384 0.531379 32.8407 0.377388 32.698 0.256279C32.5552 0.135169 32.3737 0.0522663 32.176 0.0178487C31.9783 -0.016569 31.773 -0.000988021 31.5856 0.0626598L1.58343 10.2458H1.58137L0.649149 10.5608C0.472585 10.6205 0.318924 10.7205 0.20514 10.8498C0.0913564 10.979 0.0218777 11.1323 0.00437899 11.2929C-0.0131198 11.4536 0.0220424 11.6151 0.105981 11.7599C0.189921 11.9046 0.31937 12.0268 0.48003 12.113L1.32563 12.568L1.32769 12.5715L11.6295 18.1329L18.1839 26.8741L18.188 26.8776L18.7243 27.5951C18.8262 27.7309 18.9703 27.8402 19.1407 27.9109C19.3112 27.9817 19.5013 28.0112 19.6902 27.9962C19.8792 27.9812 20.0595 27.9222 20.2115 27.8258C20.3635 27.7294 20.4811 27.5993 20.5516 27.4498L32.9262 1.20015ZM29.1457 4.5076L13.6899 17.6219L13.2465 17.0304C13.1652 16.9219 13.0568 16.8299 12.9288 16.7609L12.2317 16.3847L27.6876 3.27037L30.1171 2.44613L29.1457 4.5076Z" fill="#1F2937"/>
</svg>
