<svg width="22" height="20" viewBox="0 0 22 20" fill="none" xmlns="http://www.w3.org/2000/svg">
<path d="M9.60894 20C9.12423 20 8.70701 19.85 8.3573 19.55C8.00758 19.25 7.79646 18.8833 7.72393 18.45L7.48157 16.8C7.24819 16.7167 7.02845 16.6167 6.82235 16.5C6.61626 16.3833 6.41411 16.2583 6.21592 16.125L4.54633 16.775C4.09752 16.9583 3.64871 16.975 3.19989 16.825C2.75108 16.675 2.40101 16.4083 2.14967 16.025L0.884019 13.975C0.632684 13.5917 0.560874 13.1833 0.668589 12.75C0.776304 12.3167 1.01866 11.9583 1.39567 11.675L2.82289 10.675C2.80494 10.5583 2.79596 10.4457 2.79596 10.337V9.662C2.79596 9.554 2.80494 9.44167 2.82289 9.325L1.39567 8.325C1.01866 8.04167 0.776304 7.68333 0.668589 7.25C0.560874 6.81667 0.632684 6.40833 0.884019 6.025L2.14967 3.975C2.40101 3.59167 2.75108 3.325 3.19989 3.175C3.64871 3.025 4.09752 3.04167 4.54633 3.225L6.21592 3.875C6.4134 3.74167 6.61985 3.61667 6.83528 3.5C7.05071 3.38333 7.26614 3.28333 7.48157 3.2L7.72393 1.55C7.79574 1.11667 8.00686 0.75 8.3573 0.45C8.70773 0.15 9.12494 0 9.60894 0H12.1403C12.625 0 13.0425 0.15 13.393 0.45C13.7434 0.75 13.9542 1.11667 14.0253 1.55L14.2676 3.2C14.501 3.28333 14.7211 3.38333 14.9279 3.5C15.1347 3.61667 15.3365 3.74167 15.5333 3.875L17.2029 3.225C17.6517 3.04167 18.1005 3.025 18.5493 3.175C18.9981 3.325 19.3482 3.59167 19.5995 3.975L20.8652 6.025C21.1165 6.40833 21.1883 6.81667 21.0806 7.25C20.9729 7.68333 20.7305 8.04167 20.3535 8.325L18.9263 9.325C18.9443 9.44167 18.9532 9.55433 18.9532 9.663V10.337C18.9532 10.4457 18.9353 10.5583 18.8994 10.675L20.3266 11.675C20.7036 11.9583 20.946 12.3167 21.0537 12.75C21.1614 13.1833 21.0896 13.5917 20.8382 13.975L19.5457 16.025C19.2943 16.4083 18.9443 16.675 18.4954 16.825C18.0466 16.975 17.5978 16.9583 17.149 16.775L15.5333 16.125C15.3358 16.2583 15.1293 16.3833 14.9139 16.5C14.6985 16.6167 14.4831 16.7167 14.2676 16.8L14.0253 18.45C13.9535 18.8833 13.7427 19.25 13.393 19.55C13.0433 19.85 12.6257 20 12.1403 20H9.60894ZM10.9285 13.5C11.9697 13.5 12.8583 13.1583 13.5944 12.475C14.3305 11.7917 14.6985 10.9667 14.6985 10C14.6985 9.03333 14.3305 8.20833 13.5944 7.525C12.8583 6.84167 11.9697 6.5 10.9285 6.5C9.86926 6.5 8.97594 6.84167 8.2485 7.525C7.52107 8.20833 7.15771 9.03333 7.15843 10C7.15914 10.9667 7.52286 11.7917 8.24958 12.475C8.9763 13.1583 9.86926 13.5 10.9285 13.5Z" fill="#1F2937"/>
</svg>
