<svg width="16" height="17" viewBox="0 0 16 17" fill="none" xmlns="http://www.w3.org/2000/svg">
<path fill-rule="evenodd" clip-rule="evenodd" d="M0.75 12.4753C0.948912 12.4753 1.13968 12.5543 1.28033 12.6949C1.42098 12.8356 1.5 13.0264 1.5 13.2253V15.2253C1.5 15.3633 1.612 15.4753 1.75 15.4753H13.75C13.8163 15.4753 13.8799 15.4489 13.9268 15.4021C13.9737 15.3552 14 15.2916 14 15.2253V13.2253C14 13.0264 14.079 12.8356 14.2197 12.6949C14.3603 12.5543 14.5511 12.4753 14.75 12.4753C14.9489 12.4753 15.1397 12.5543 15.2803 12.6949C15.421 12.8356 15.5 13.0264 15.5 13.2253V15.2253C15.5 15.6894 15.3156 16.1345 14.9874 16.4627C14.6592 16.7909 14.2141 16.9753 13.75 16.9753H1.75C1.28587 16.9753 0.840752 16.7909 0.512563 16.4627C0.184375 16.1345 0 15.6894 0 15.2253V13.2253C0 13.0264 0.0790175 12.8356 0.21967 12.6949C0.360322 12.5543 0.551088 12.4753 0.75 12.4753ZM6.488 12.3523C6.23969 12.3529 6.0002 12.2603 5.81701 12.0926C5.63382 11.925 5.52032 11.6947 5.499 11.4473C5.34709 9.69474 5.32036 7.93361 5.419 6.17728C5.17186 6.16346 4.92485 6.14746 4.678 6.12928L3.188 6.02028C3.05678 6.01066 2.9303 5.96714 2.82094 5.89398C2.71158 5.82081 2.62309 5.72051 2.56413 5.60289C2.50516 5.48526 2.47775 5.35435 2.48456 5.22295C2.49138 5.09155 2.53219 4.96417 2.603 4.85328C3.66575 3.19183 5.03392 1.74697 6.635 0.595276L7.232 0.166276C7.38308 0.0581426 7.56421 0 7.75 0C7.93579 0 8.11692 0.0581426 8.268 0.166276L8.865 0.596276C10.466 1.74767 11.8341 3.19219 12.897 4.85328C12.9678 4.96417 13.0086 5.09155 13.0154 5.22295C13.0223 5.35435 12.9948 5.48526 12.9359 5.60289C12.8769 5.72051 12.7884 5.82081 12.6791 5.89398C12.5697 5.96714 12.4432 6.01066 12.312 6.02028L10.822 6.12928C10.5753 6.14728 10.3287 6.16294 10.082 6.17628C10.182 7.93328 10.154 9.69428 10 11.4463C9.97893 11.6937 9.86567 11.9241 9.68267 12.0919C9.49967 12.2597 9.26029 12.3527 9.012 12.3523H6.488Z" fill="black"/>
</svg>
