<svg width="15" height="14" viewBox="0 0 15 14" fill="none" xmlns="http://www.w3.org/2000/svg">
<path d="M1.99982 12.8906H12.6517C12.8247 12.8906 12.9947 12.8457 13.1452 12.7603C13.2956 12.6749 13.4214 12.5519 13.5101 12.4034C13.5988 12.2548 13.6474 12.0858 13.6513 11.9129C13.6551 11.7399 13.614 11.5689 13.532 11.4166L8.20638 1.52594C7.82857 0.824687 6.82295 0.824687 6.44513 1.52594L1.11951 11.4166C1.03749 11.5689 0.996402 11.7399 1.00025 11.9129C1.00409 12.0858 1.05274 12.2548 1.14145 12.4034C1.23015 12.5519 1.35587 12.6749 1.50633 12.7603C1.65678 12.8457 1.82682 12.8906 1.99982 12.8906Z" stroke="black" stroke-linecap="round" stroke-linejoin="round"/>
<path d="M7.14636 5.05118L7.32574 8.86368L7.5048 5.05274C7.5059 5.02838 7.50203 5.00405 7.49341 4.98123C7.4848 4.95842 7.47162 4.9376 7.45468 4.92005C7.43775 4.9025 7.41741 4.88859 7.39492 4.87917C7.37243 4.86974 7.34825 4.86501 7.32386 4.86524C7.2999 4.86548 7.27623 4.87051 7.25425 4.88004C7.23226 4.88958 7.21241 4.90342 7.19587 4.92075C7.17932 4.93808 7.16642 4.95855 7.15791 4.98096C7.14941 5.00336 7.14548 5.02724 7.14636 5.05118Z" stroke="black" stroke-linecap="round" stroke-linejoin="round"/>
<path d="M7.32574 11.3594C7.20213 11.3594 7.08129 11.3227 6.97851 11.254C6.87573 11.1854 6.79563 11.0878 6.74832 10.9736C6.70102 10.8593 6.68864 10.7337 6.71275 10.6124C6.73687 10.4912 6.7964 10.3798 6.8838 10.2924C6.97121 10.205 7.08258 10.1455 7.20381 10.1214C7.32505 10.0973 7.45072 10.1096 7.56492 10.157C7.67913 10.2043 7.77674 10.2844 7.84541 10.3871C7.91409 10.4899 7.95074 10.6108 7.95074 10.7344C7.95074 10.9001 7.8849 11.0591 7.76769 11.1763C7.65048 11.2935 7.49151 11.3594 7.32574 11.3594Z" fill="black"/>
</svg>
